<svg xmlns:dc="http://purl.org/dc/elements/1.1/" xmlns:cc="http://creativecommons.org/ns#" xmlns:rdf="http://www.w3.org/1999/02/22-rdf-syntax-ns#" xmlns:svg="http://www.w3.org/2000/svg" xmlns="http://www.w3.org/2000/svg" xmlns:sodipodi="http://sodipodi.sourceforge.net/DTD/sodipodi-0.dtd" xmlns:inkscape="http://www.inkscape.org/namespaces/inkscape" version="1.1" x="0px" y="0px" viewBox="0 0 100 100"><g transform="translate(0,-952.36218)"><path style="text-indent:0;text-transform:none;direction:ltr;block-progression:tb;baseline-shift:baseline;color:#000000;enable-background:accumulate;" d="m 71,974.36162 c -6.06326,0 -11,4.93671 -11,11 0,6.06328 4.93674,11.00002 11,11.00002 6.06327,0 11,-4.93674 11,-11.00002 0,-6.06329 -4.93673,-11 -11,-11 z m 0,2 c 4.9824,0 9,4.01759 9,9 0,4.9824 -4.0176,9.00002 -9,9.00002 -4.9824,0 -9,-4.01762 -9,-9.00002 0,-4.98241 4.0176,-9 9,-9 z m -25.0625,6 c -4.95872,0 -9,4.04128 -9,9 0,4.95872 4.04128,8.99998 9,8.99998 4.95872,0 9,-4.04126 9,-8.99998 0,-4.95872 -4.04128,-9 -9,-9 z m 0,2 c 3.87781,0 7,3.12216 7,7 0,3.87782 -3.12219,7.00002 -7,7.00002 -3.87782,0 -7,-3.1222 -7,-7.00002 0,-3.87784 3.12218,-7 7,-7 z m -22.9375,7 c -3.85416,0 -7,3.14582 -7,7.00002 0,3.85406 3.14584,6.99996 7,6.99996 3.85416,0 7,-3.1459 7,-6.99996 0,-3.8542 -3.14584,-7.00002 -7,-7.00002 z m 0,2.00002 c 2.77328,0 5,2.2267 5,5 0,2.77316 -2.22672,4.99996 -5,4.99996 -2.77328,0 -5,-2.2268 -5,-4.99996 0,-2.7733 2.22672,-5 5,-5 z m 48,8.99996 c -6.49845,0 -12.30947,1.5162 -16.375,4.1562 -2.63035,-0.7428 -5.56855,-1.1562 -8.6875,-1.1562 -7.11767,0 -13.31326,2.1115 -16.90625,5.5625 -1.86706,-0.3769 -3.89216,-0.5625 -6.03125,-0.5625 -4.27819,0 -8.15215,0.7649 -11.0625,2.25 C 9.02715,1014.0967 7,1016.4148 7,1019.3303 l 0,10.0313 a 1.0001,1.0001 0 0 0 1,1 l 30,0 a 1.0001,1.0001 0 0 0 0.0937,0 l 26.84375,0 a 1.0001,1.0001 0 0 0 0.0625,0 1.0001,1.0001 0 0 0 0.0312,0 l 26.96885,0 a 1.0001,1.0001 0 0 0 1,-1 l 0,-14 c 0,-3.9 -2.66523,-7.2206 -6.65625,-9.4688 -3.99102,-2.2482 -9.38046,-3.5312 -15.34375,-3.5312 z m 0,2 c 5.67071,0 10.77452,1.253 14.375,3.2812 3.60048,2.0283 5.625,4.7245 5.625,7.7188 l 0,13 -25.0625,0 0,-11 c 0,-3.5367 -2.4354,-6.5957 -6.0625,-8.6875 -0.84201,-0.4856 -1.74951,-0.9252 -2.71875,-1.3125 3.56428,-1.8515 8.44514,-3 13.84375,-3 z m -25.0625,3 c 5.10959,0 9.6961,1.1619 12.9375,3.0312 3.2414,1.8694 5.0625,4.3499 5.0625,6.9688 l 0,11 -24.9375,0 0,-9.0313 c 0,-2.9155 -2.02715,-5.2336 -4.9375,-6.7187 -0.83223,-0.4247 -1.74201,-0.7879 -2.71875,-1.0938 3.21715,-2.4744 8.52671,-4.1562 14.59375,-4.1562 z m -22.9375,5 c 4.03181,0 7.6441,0.7493 10.15625,2.0312 2.51215,1.2819 3.84375,2.9274 3.84375,4.9375 l 0,9.0313 -28,0 0,-9.0313 c 0,-2.0101 1.3316,-3.6556 3.84375,-4.9375 2.51215,-1.2819 6.12444,-2.0312 10.15625,-2.0312 z" fill="#000000" fill-opacity="1" stroke="none" marker="none" visibility="visible" display="inline" overflow="visible"/></g></svg>