<svg xmlns="http://www.w3.org/2000/svg" xmlns:xlink="http://www.w3.org/1999/xlink" version="1.1" x="0px" y="0px" viewBox="0 0 100 100" style="enable-background:new 0 0 100 100;" xml:space="preserve"><g><path d="M36.917,37.446c0.391,0.274,0.84,0.406,1.284,0.406c0.704,0,1.397-0.332,1.834-0.953l8.512-12.129   c0.878-1.252,2.195-2.086,3.708-2.352c1.515-0.265,3.037,0.074,4.287,0.952c1.013,0.711,2.407,0.465,3.118-0.545   c0.711-1.012,0.466-2.408-0.546-3.118c-2.229-1.566-4.939-2.169-7.631-1.698c-2.692,0.471-5.036,1.959-6.601,4.19L36.37,34.328   C35.66,35.34,35.905,36.735,36.917,37.446z"/><path d="M51.648,60.243c7.271-10.365,14.526-20.705,16.159-23.035c2.743-3.905,3.801-8.643,2.978-13.342   c-0.824-4.699-3.429-8.794-7.334-11.533c-3.021-2.121-6.562-3.24-10.24-3.24c-5.822,0-11.291,2.841-14.631,7.601   c-4.955,7.061-27.388,39.031-32.34,46.09c-5.656,8.059-3.7,19.219,4.359,24.878c3.021,2.117,6.563,3.236,10.242,3.236   c5.821,0,11.292-2.84,14.632-7.598l13.828-19.711c0.774-1.104,1.556-2.218,2.337-3.331c0.002-0.003,0.004-0.005,0.006-0.007   C51.646,60.25,51.646,60.247,51.648,60.243z M42.244,19.266c2.502-3.567,6.603-5.696,10.967-5.696c2.754,0,5.405,0.839,7.669,2.428   c2.928,2.053,4.879,5.122,5.496,8.641c0.616,3.521-0.175,7.071-2.232,9.999c-1.538,2.194-8.056,11.485-14.88,21.212L27.358,40.48   C33.76,31.356,39.922,22.576,42.244,19.266z M31.809,80.73c-2.503,3.564-6.604,5.694-10.968,5.693c-2.755,0-5.408-0.839-7.67-2.426   c-6.039-4.24-7.505-12.604-3.267-18.643c2.321-3.309,8.481-12.089,14.883-21.211l21.906,15.369   c-0.353,0.503-0.705,1.006-1.056,1.506L31.809,80.73z"/><path d="M95.636,63.826c-2.996-7.686-10.262-12.651-18.509-12.651c-2.467,0-4.894,0.457-7.211,1.361   c-10.201,3.979-15.266,15.518-11.29,25.721c2.998,7.685,10.263,12.649,18.509,12.649c2.469,0,4.896-0.458,7.213-1.362   C94.551,85.563,99.615,74.025,95.636,63.826z M71.542,56.706c1.797-0.7,3.677-1.056,5.585-1.056c5.631,0,10.666,2.99,13.373,7.775   L62.153,74.479C60.474,67.167,64.351,59.512,71.542,56.706z M82.722,85.373c-1.797,0.702-3.677,1.058-5.587,1.058   c-5.629,0-10.666-2.99-13.372-7.773L92.11,67.604C93.791,74.913,89.915,82.567,82.722,85.373z"/></g></svg>